<?xml version="1.0" encoding="utf-8"?>
<!-- Generator: Adobe Illustrator 24.1.3, SVG Export Plug-In . SVG Version: 6.00 Build 0)  -->
<svg version="1.1" id="Capa_1" xmlns="http://www.w3.org/2000/svg" xmlns:xlink="http://www.w3.org/1999/xlink" x="0px" y="0px"
	 viewBox="0 0 1866 652" style="enable-background:new 0 0 1866 652;" xml:space="preserve">
<style type="text/css">
	.st0{fill:#0079FF;}
	.st1{fill:#FFD63D;}
	.st2{fill:#FF6B6B;}
	.st3{fill:#2D2D2D;}
</style>
<g>
	<g>
		<path class="st0" d="M430.34,374.67h106.51c53.4-80.66,84.52-177.36,84.52-281.33v0c0-24.88-20.17-45.05-45.05-45.05H110.99
			c-24.88,0-45.05,20.17-45.05,45.05v465.33c0,24.88,20.17,45.05,45.05,45.05h0c108.94,0,209.9-34.16,292.78-92.31V401.23
			C403.78,386.56,415.67,374.67,430.34,374.67z"/>
		<path class="st1" d="M606.26,374.67h-69.41c-35.41,53.49-80.61,99.92-133.07,136.72v65.76c0,14.67,11.89,26.56,26.56,26.56h175.92
			c14.67,0,26.56-11.89,26.56-26.56V401.23C632.81,386.56,620.92,374.67,606.26,374.67z"/>
		<path class="st2" d="M536.85,374.67H430.34c-14.67,0-26.56,11.89-26.56,26.56v110.16C456.24,474.59,501.44,428.16,536.85,374.67z"
			/>
	</g>
	<g>
		<path class="st3" d="M879.69,499.86l-72.92-126.69h-39.65v126.69h-51.95V183.13h109.37c24.3,0,44.89,4.26,61.75,12.76
			c16.86,8.51,29.47,19.9,37.82,34.18c8.35,14.28,12.53,30.23,12.53,47.85c0,20.66-6,39.42-18,56.28
			c-12.01,16.86-30.46,28.33-55.37,34.41l78.38,131.25H879.69z M767.13,331.7h57.42c19.44,0,34.1-4.86,43.98-14.59
			c9.87-9.72,14.81-22.78,14.81-39.19c0-16.41-4.86-29.24-14.58-38.51c-9.73-9.26-24.46-13.9-44.21-13.9h-57.42V331.7z"/>
		<path class="st3" d="M1005.92,205.92c-6.38-6.38-9.57-14.28-9.57-23.7c0-9.41,3.19-17.32,9.57-23.69
			c6.38-6.38,14.28-9.57,23.7-9.57c9.11,0,16.86,3.19,23.24,9.57c6.38,6.38,9.57,14.28,9.57,23.69c0,9.42-3.19,17.32-9.57,23.7
			c-6.38,6.38-14.13,9.57-23.24,9.57C1020.2,215.49,1012.3,212.3,1005.92,205.92z M1055.14,248.75v251.1h-51.95v-251.1H1055.14z"/>
		<path class="st3" d="M1228.77,291.14h-46.48v208.72h-52.41V291.14h-29.62v-42.38h29.62v-17.77c0-28.86,7.67-49.9,23.01-63.12
			c15.34-13.22,39.42-19.82,72.23-19.82v43.29c-15.8,0-26.89,2.96-33.27,8.89c-6.38,5.92-9.57,16.18-9.57,30.76v17.77h46.48V291.14z
			"/>
		<path class="st3" d="M1273.19,306.17c10.48-19.44,24.76-34.56,42.83-45.34c18.07-10.78,38.05-16.18,59.93-16.18
			c19.74,0,36.98,3.87,51.73,11.62c14.73,7.75,26.5,17.4,35.32,28.94v-36.46h52.41v251.1H1463v-37.37
			c-8.81,11.85-20.81,21.73-36,29.62c-15.2,7.9-32.51,11.85-51.95,11.85c-21.58,0-41.32-5.54-59.24-16.64
			c-17.93-11.09-32.13-26.58-42.61-46.48c-10.48-19.9-15.72-42.46-15.72-67.68C1257.47,347.95,1262.71,325.62,1273.19,306.17z
			 M1452.29,328.96c-7.14-12.76-16.49-22.48-28.03-29.17c-11.55-6.68-24-10.03-37.37-10.03c-13.37,0-25.82,3.27-37.37,9.8
			c-11.55,6.54-20.89,16.11-28.03,28.71c-7.14,12.61-10.71,27.57-10.71,44.89c0,17.32,3.57,32.51,10.71,45.57
			c7.14,13.07,16.56,23.01,28.26,29.85c11.69,6.83,24.07,10.25,37.14,10.25c13.37,0,25.82-3.34,37.37-10.03
			c11.54-6.68,20.88-16.48,28.03-29.39c7.14-12.91,10.71-28.03,10.71-45.35C1463,356.76,1459.43,341.72,1452.29,328.96z"/>
		<path class="st3" d="M1666.02,255.36c12.6-7.14,27.57-10.71,44.89-10.71v53.77h-13.22c-20.36,0-35.78,5.17-46.26,15.5
			c-10.48,10.33-15.72,28.26-15.72,53.78v132.16h-51.95v-251.1h51.95v36.46C1643.31,272.45,1653.41,262.51,1666.02,255.36z"/>
		<path class="st3" d="M1761.49,205.92c-6.38-6.38-9.57-14.28-9.57-23.7c0-9.41,3.19-17.32,9.57-23.69
			c6.38-6.38,14.28-9.57,23.69-9.57c9.12,0,16.86,3.19,23.24,9.57c6.38,6.38,9.57,14.28,9.57,23.69c0,9.42-3.19,17.32-9.57,23.7
			c-6.38,6.38-14.13,9.57-23.24,9.57C1775.77,215.49,1767.87,212.3,1761.49,205.92z M1810.71,248.75v251.1h-51.95v-251.1H1810.71z"
			/>
	</g>
</g>
</svg>
